<svg width="404" height="110" viewBox="0 0 404 110" fill="none" xmlns="http://www.w3.org/2000/svg">
<g clip-path="url(#clip0_201_268)">
<mask id="mask0_201_268" style="mask-type:luminance" maskUnits="userSpaceOnUse" x="0" y="0" width="56" height="109">
<path d="M0 0H55.2305V108.875H0V0Z" fill="white"/>
</mask>
<g mask="url(#mask0_201_268)">
<path fill-rule="evenodd" clip-rule="evenodd" d="M8.71094 79.9023C8.71094 86.3437 13.5469 91.6836 19.7852 92.5C20.668 88.9023 22.5391 85.6797 25.0859 83.1406C28.7109 79.5273 33.7187 77.2891 39.2617 77.2891C40.6328 77.2891 41.75 78.4023 41.75 79.7695C41.75 81.1367 40.6328 82.25 39.2617 82.25C39.0742 82.25 38.8945 82.25 38.7148 82.2617C40.2852 84.1641 41.7695 87.0586 41.6562 91.1602C41.6211 92.5273 40.4727 93.6055 39.1094 93.5664C37.7383 93.5313 36.6602 92.3867 36.6953 91.0273C36.8477 85.6875 32.9766 83.7422 32.9648 83.7305C32.9297 83.7148 32.9023 83.6953 32.8633 83.6758C31.2773 84.4141 29.8398 85.4375 28.6172 86.6523C25.8906 89.3711 24.1992 93.125 24.1992 97.2773C24.1992 98.043 24.2578 98.793 24.3711 99.5234C27.1406 104.984 32.8242 108.742 39.375 108.742C45.6289 108.742 51.3242 105.305 54.2383 99.7695L54.4336 99.3945V62.2344C54.1719 62.0664 53.9375 61.8594 53.7305 61.5898L53.6719 61.5234C51.1914 57.9727 47.5078 55.7617 43.5625 55.0586C43.0469 54.9648 42.5312 54.8984 42.0039 54.8633C40.9531 55.9883 39.9453 57.2617 39.2227 58.6367C38.5 60.0156 38.0859 61.4766 38.2852 62.918C38.4727 64.332 37.4766 65.625 36.0664 65.8203C34.6484 66.0078 33.3516 65.0273 33.1562 63.6133C32.7969 60.9688 33.4453 58.4883 34.6211 56.2578C34.6562 56.1836 34.6953 56.1094 34.7344 56.043C33.7266 56.4648 32.75 57 31.8203 57.6445V57.6367C30.6836 58.4219 29.1133 58.1797 28.2773 57.0625C27.4219 55.9297 27.6484 54.3086 28.7969 53.457L28.8711 53.4023C33.5977 50.1211 39.2148 49.0664 44.4766 50C48.1016 50.6484 51.5586 52.2383 54.4336 54.7109V8.63672C54.3008 8.48828 54.1914 8.31641 54.0938 8.14063L54.0664 8.09375C52.3945 4.57031 49.4531 2.05078 46.0547 0.832033C42.6523 -0.38281 38.7734 -0.308593 35.2383 1.35938C31.707 3.02735 29.1797 5.95703 27.9609 9.34766C26.7383 12.7383 26.8125 16.6094 28.4844 20.1289C29.0312 21.293 28.5312 22.6797 27.3672 23.2305C26.2031 23.7734 24.8125 23.2773 24.2578 22.1172C22.9805 19.418 22.4062 16.5625 22.4648 13.7695C14.0938 14.707 7.5625 21.8164 7.5625 30.4063C7.5625 31.7813 7.73047 33.1602 8.07031 34.4883C10.3437 34.1445 12.7109 34.2461 15.0781 34.8438C19.4102 35.9609 23.3164 38.7227 25.7695 42.8711C26.3789 43.9023 26.0312 45.2227 25.0078 45.832C23.9766 46.4414 22.6523 46.0937 22.0391 45.0742C18.6562 39.3594 11.707 37.1211 5.60938 39.6602C2.06641 43.5273 0.0664062 48.6055 0.0664062 54C0.0664062 61.793 4.29297 68.8867 11.0117 72.6328C9.52734 74.75 8.71875 77.2578 8.71875 79.9023H8.71094Z" fill="#41C1BA"/>
</g>
<mask id="mask1_201_268" style="mask-type:luminance" maskUnits="userSpaceOnUse" x="60" y="0" width="56" height="110">
<path d="M60.2305 0H115.5V109.5H60.2305V0Z" fill="white"/>
</mask>
<g mask="url(#mask1_201_268)">
<path fill-rule="evenodd" clip-rule="evenodd" d="M106.793 29.6016C106.793 23.1563 101.953 17.8164 95.7148 17C94.832 20.5977 92.9609 23.8203 90.4141 26.3594C86.7891 29.9766 81.7813 32.2148 76.2383 32.2148C74.8672 32.2148 73.75 31.0977 73.75 29.7305C73.75 28.3633 74.8672 27.25 76.2383 27.25C76.4258 27.25 76.6055 27.25 76.7852 27.2383C75.2148 25.3398 73.7305 22.4453 73.8438 18.3398C73.8828 16.9727 75.0273 15.8945 76.3906 15.9336C77.7617 15.9727 78.8398 17.1133 78.8047 18.4727C78.6523 23.8125 82.5234 25.7578 82.5352 25.7695C82.5703 25.7891 82.5977 25.8047 82.6367 25.8242C84.2266 25.0742 85.6641 24.0625 86.8828 22.8477C89.6094 20.1289 91.3008 16.375 91.3008 12.2227C91.3008 11.457 91.2422 10.707 91.1289 9.97656C88.3594 4.51563 82.6758 0.757812 76.1367 0.757812C69.8789 0.757812 64.1875 4.19531 61.2734 9.73438L61.0742 10.1055V47.2656C61.3398 47.4258 61.5742 47.6406 61.7695 47.9141L61.8359 47.9883C64.3164 51.5391 68 53.7461 71.9453 54.4492C72.4609 54.543 72.9805 54.6094 73.5039 54.6484C74.5586 53.5312 75.5625 52.25 76.2852 50.8711C77.0078 49.4961 77.4219 48.0352 77.2266 46.5898C77.0391 45.1758 78.0234 43.8828 79.4414 43.6875C80.8633 43.5 82.1562 44.4922 82.3555 45.8984C82.7109 48.5391 82.0625 51.0234 80.8906 53.25C80.8516 53.3281 80.8164 53.4023 80.7656 53.4766C81.7734 53.0547 82.75 52.5195 83.6875 51.875L83.6992 51.8828C84.8359 51.0977 86.4062 51.3398 87.2422 52.457C88.0937 53.5898 87.8711 55.2109 86.7227 56.0625L86.6484 56.1172C81.9219 59.3945 76.3047 60.4531 71.043 59.5195C67.418 58.8711 63.9609 57.2812 61.0859 54.8047V100.883C61.2187 101.031 61.3281 101.199 61.4219 101.379L61.4531 101.426C63.125 104.949 66.0664 107.469 69.4648 108.684C72.8672 109.902 76.7461 109.828 80.2773 108.16C83.8125 106.492 86.3398 103.562 87.5586 100.172C88.7812 96.7812 88.707 92.9102 87.0352 89.3906C86.4805 88.2266 86.9766 86.8398 88.1523 86.2969C89.3164 85.7461 90.707 86.25 91.2617 87.4141C92.5391 90.1094 93.1133 92.9688 93.0547 95.7578C101.426 94.8203 107.957 87.7109 107.957 79.125C107.957 77.7461 107.785 76.3711 107.449 75.0391C105.176 75.3867 102.809 75.2812 100.441 74.6836C96.1094 73.5703 92.1992 70.8047 89.75 66.6641C89.1367 65.6328 89.4844 64.3125 90.5117 63.707C91.543 63.0977 92.8672 63.4414 93.4805 64.4648C96.8594 70.1758 103.812 72.418 109.91 69.8789C113.441 66.0078 115.453 60.9336 115.453 55.5391C115.453 47.7422 111.227 40.6523 104.508 36.9062C105.992 34.7891 106.793 32.2773 106.793 29.6367V29.6016Z" fill="white"/>
</g>
<path d="M153.708 23.3906C153.685 23.6016 153.603 23.7734 153.458 23.9062C153.31 24.0312 153.134 24.0938 152.927 24.0938H141.224C141.169 24.0938 141.115 24.1211 141.052 24.1719C140.99 24.2266 140.958 24.293 140.958 24.375L140.365 29.0781C140.365 29.2656 140.443 29.3594 140.599 29.3594H147.99C148.197 29.3594 148.357 29.4297 148.474 29.5625C148.599 29.6875 148.646 29.8555 148.615 30.0625L148.099 34.2188C148.025 34.6875 147.763 34.9219 147.318 34.9219H139.927C139.771 34.9219 139.665 35.0156 139.615 35.2031L138.349 45.4219C138.318 45.6406 138.232 45.8203 138.099 45.9531C137.974 46.0781 137.806 46.1406 137.599 46.1406H132.615C132.404 46.1406 132.24 46.0781 132.115 45.9531C131.997 45.8203 131.958 45.6406 131.99 45.4219L135.224 19.2031C135.255 18.9961 135.337 18.8242 135.474 18.6875C135.618 18.5547 135.802 18.4844 136.021 18.4844H153.63C153.837 18.4844 153.993 18.5547 154.099 18.6875C154.212 18.8242 154.255 18.9961 154.224 19.2031L153.708 23.3906Z" fill="white"/>
<path d="M167.252 26.4375C167.334 25.9609 167.6 25.7188 168.049 25.7188H173.018C173.236 25.7188 173.397 25.7891 173.502 25.9219C173.604 26.0469 173.643 26.2188 173.611 26.4375L171.283 45.4219C171.26 45.6406 171.182 45.8203 171.049 45.9531C170.912 46.0781 170.74 46.1406 170.533 46.1406H165.565C165.346 46.1406 165.178 46.0781 165.065 45.9531C164.947 45.8203 164.901 45.6406 164.924 45.4219L165.049 44.4844C165.068 44.3516 165.049 44.2734 164.986 44.25C164.924 44.2188 164.85 44.2578 164.768 44.3594C163.58 45.7578 162.037 46.4531 160.143 46.4531C158.486 46.4531 157.018 45.8906 155.736 44.7656C154.463 43.6328 153.682 42.168 153.393 40.375C153.256 39.5312 153.19 38.7812 153.19 38.125C153.19 37.5938 153.24 36.8281 153.346 35.8281C153.565 34.0391 154.037 32.3828 154.768 30.8594C155.557 29.2266 156.674 27.9023 158.111 26.8906C159.549 25.8711 161.084 25.3594 162.721 25.3594C164.69 25.3594 166.068 25.9688 166.861 27.1875C166.912 27.293 166.975 27.3359 167.049 27.3125C167.131 27.2812 167.174 27.1992 167.174 27.0625L167.252 26.4375ZM165.002 39.1875C165.553 38.293 165.908 37.2148 166.065 35.9531C166.115 35.3203 166.143 34.8828 166.143 34.6406C166.143 33.7773 166.026 33.0547 165.799 32.4688C165.369 31.5742 164.682 31.125 163.736 31.125C162.736 31.125 161.916 31.5898 161.283 32.5156C160.729 33.3281 160.35 34.4766 160.143 35.9531C160.088 36.4766 160.065 36.8438 160.065 37.0625C160.065 37.8984 160.182 38.6211 160.424 39.2344C160.787 40.2031 161.494 40.6875 162.549 40.6875C163.549 40.6875 164.365 40.1875 165.002 39.1875Z" fill="white"/>
<path d="M194.665 30.8594C194.903 31.7578 195.024 32.7148 195.024 33.7344C195.024 34.1836 194.97 34.8828 194.868 35.8281C194.7 37.4844 194.313 39 193.712 40.375C192.97 42.168 191.829 43.6328 190.29 44.7656C188.759 45.8906 187.157 46.4531 185.493 46.4531C183.544 46.4531 182.18 45.7578 181.399 44.3594C181.313 44.2578 181.235 44.2188 181.165 44.25C181.102 44.2734 181.059 44.3516 181.04 44.4844L180.962 45.4219C180.876 45.9023 180.61 46.1406 180.165 46.1406H175.196C174.977 46.1406 174.809 46.0781 174.696 45.9531C174.579 45.8203 174.532 45.6406 174.555 45.4219L177.79 19.2031C177.821 18.9961 177.907 18.8242 178.055 18.6875C178.2 18.5547 178.376 18.4844 178.587 18.4844H183.571C183.778 18.4844 183.934 18.5547 184.04 18.6875C184.141 18.8242 184.184 18.9961 184.165 19.2031L183.212 27.0625C183.18 27.1992 183.196 27.2812 183.259 27.3125C183.329 27.3359 183.407 27.293 183.493 27.1875C184.563 25.9688 186.091 25.3594 188.071 25.3594C189.704 25.3594 191.122 25.8711 192.321 26.8906C193.516 27.9023 194.298 29.2266 194.665 30.8594ZM187.009 39.2344C187.528 38.3906 187.868 37.2969 188.024 35.9531C188.075 35.6328 188.102 35.1953 188.102 34.6406C188.102 33.8594 187.997 33.1523 187.79 32.5156C187.372 31.5898 186.665 31.125 185.665 31.125C184.684 31.125 183.876 31.5742 183.243 32.4688C182.669 33.3984 182.305 34.5586 182.149 35.9531C182.095 36.5273 182.071 36.9336 182.071 37.1719C182.071 37.9336 182.173 38.6055 182.384 39.1875C182.798 40.1875 183.497 40.6875 184.477 40.6875C185.477 40.6875 186.321 40.2031 187.009 39.2344Z" fill="white"/>
<path d="M208.999 25.4375C209.788 25.4375 210.445 25.5859 210.968 25.875C211.175 26.0117 211.281 26.1992 211.281 26.4375C211.281 26.5625 211.269 26.668 211.249 26.75L209.749 31.7969C209.695 32.0391 209.601 32.1953 209.468 32.2656C209.343 32.3281 209.16 32.3359 208.921 32.2812C208.597 32.1992 208.21 32.1562 207.765 32.1562C207.347 32.1562 207.035 32.1836 206.827 32.2344C206.035 32.3398 205.327 32.6562 204.702 33.1875C204.085 33.7109 203.726 34.4062 203.624 35.2812L202.406 45.4219C202.32 45.9023 202.054 46.1406 201.609 46.1406H196.64C196.421 46.1406 196.257 46.0781 196.156 45.9531C196.05 45.8203 196.015 45.6406 196.046 45.4219L198.374 26.4375C198.394 26.2188 198.472 26.0469 198.609 25.9219C198.742 25.7891 198.913 25.7188 199.124 25.7188H204.093C204.312 25.7188 204.476 25.7891 204.593 25.9219C204.706 26.0469 204.753 26.2188 204.734 26.4375L204.609 27.2969C204.585 27.4336 204.609 27.5156 204.671 27.5469C204.734 27.5703 204.804 27.5273 204.89 27.4219C206.023 26.1016 207.394 25.4375 208.999 25.4375Z" fill="white"/>
<path d="M217.005 24.375C216.005 24.375 215.201 24.0781 214.599 23.4844C213.994 22.8906 213.693 22.1094 213.693 21.1406C213.693 19.9023 214.091 18.8828 214.896 18.0781C215.697 17.2773 216.716 16.875 217.959 16.875C218.99 16.875 219.795 17.1562 220.38 17.7188C220.974 18.2812 221.271 19.0391 221.271 19.9844C221.271 21.2773 220.869 22.3359 220.068 23.1562C219.263 23.9688 218.244 24.375 217.005 24.375ZM211.88 46.1406C211.67 46.1406 211.505 46.0781 211.38 45.9531C211.263 45.8203 211.216 45.6406 211.24 45.4219L213.584 26.4375C213.654 25.9609 213.916 25.7188 214.365 25.7188H219.349C219.556 25.7188 219.712 25.7891 219.818 25.9219C219.92 26.0469 219.962 26.2188 219.943 26.4375L217.599 45.4219C217.576 45.6406 217.498 45.8203 217.365 45.9531C217.24 46.0781 217.068 46.1406 216.849 46.1406H211.88Z" fill="white"/>
<path d="M230.092 46.4531C228.006 46.4531 226.248 45.918 224.811 44.8438C223.373 43.7617 222.428 42.2734 221.983 40.375C221.803 39.6367 221.717 38.793 221.717 37.8438C221.717 37.1562 221.752 36.4844 221.826 35.8281C222.033 34.0391 222.455 32.5234 223.092 31.2812C223.987 29.4492 225.283 28.0117 226.983 26.9688C228.678 25.9297 230.58 25.4062 232.686 25.4062C234.799 25.4062 236.596 25.9492 238.076 27.0312C239.565 28.1055 240.483 29.4688 240.826 31.125C240.928 31.5742 240.983 32.0117 240.983 32.4375C240.983 32.8867 240.748 33.1484 240.279 33.2188L235.295 33.9688L235.108 34.0156C234.94 34.0156 234.811 33.9688 234.717 33.875C234.631 33.7812 234.592 33.6719 234.592 33.5469L234.514 32.9844C234.428 32.4141 234.147 31.9453 233.67 31.5781C233.201 31.2031 232.623 31.0156 231.936 31.0156C230.592 31.0156 229.631 31.6367 229.061 32.875C228.686 33.6055 228.42 34.6055 228.264 35.875C228.19 36.4297 228.154 36.9375 228.154 37.4062C228.154 37.9609 228.19 38.4336 228.264 38.8281C228.608 40.1719 229.44 40.8438 230.764 40.8438C231.389 40.8438 231.959 40.6797 232.483 40.3438C233.014 40 233.44 39.4961 233.764 38.8281L233.795 38.6406C233.846 38.5078 233.967 38.3672 234.154 38.2188C234.342 38.0742 234.522 38.0156 234.701 38.0469L239.483 38.8281C239.959 38.9141 240.131 39.1797 239.998 39.625C239.912 39.918 239.795 40.2461 239.639 40.6094C238.826 42.4531 237.553 43.8906 235.826 44.9219C234.108 45.9453 232.194 46.4531 230.092 46.4531Z" fill="white"/>
<path d="M248.006 24.375C247.006 24.375 246.202 24.0781 245.6 23.4844C244.995 22.8906 244.694 22.1094 244.694 21.1406C244.694 19.9023 245.092 18.8828 245.897 18.0781C246.698 17.2773 247.717 16.875 248.96 16.875C249.991 16.875 250.796 17.1562 251.381 17.7188C251.975 18.2812 252.272 19.0391 252.272 19.9844C252.272 21.2773 251.87 22.3359 251.069 23.1562C250.264 23.9688 249.245 24.375 248.006 24.375ZM242.881 46.1406C242.671 46.1406 242.506 46.0781 242.381 45.9531C242.264 45.8203 242.217 45.6406 242.241 45.4219L244.585 26.4375C244.655 25.9609 244.917 25.7188 245.366 25.7188H250.35C250.557 25.7188 250.714 25.7891 250.819 25.9219C250.921 26.0469 250.964 26.2188 250.944 26.4375L248.6 45.4219C248.577 45.6406 248.499 45.8203 248.366 45.9531C248.241 46.0781 248.069 46.1406 247.85 46.1406H242.881Z" fill="white"/>
<path d="M261.046 46.4531C258.753 46.4531 256.882 45.8242 255.437 44.5625C253.987 43.3047 253.116 41.5898 252.827 39.4219C252.753 38.8711 252.718 38.3086 252.718 37.7344C252.718 37.1211 252.753 36.5 252.827 35.875C252.984 34.6055 253.3 33.3281 253.78 32.0469C254.644 29.9648 255.945 28.3398 257.687 27.1719C259.425 25.9961 261.425 25.4062 263.687 25.4062C265.925 25.4062 267.753 25.9961 269.171 27.1719C270.597 28.3398 271.484 29.9492 271.827 32C271.929 32.6055 271.984 33.3125 271.984 34.125C271.984 34.8672 271.956 35.4219 271.905 35.7969C271.749 37.1094 271.46 38.2656 271.046 39.2656C270.253 41.4766 268.972 43.2266 267.202 44.5156C265.441 45.8086 263.39 46.4531 261.046 46.4531ZM261.765 40.8438C262.491 40.8438 263.132 40.6055 263.687 40.125C264.237 39.6367 264.675 38.9688 264.999 38.125C265.206 37.543 265.378 36.793 265.515 35.875C265.566 35.293 265.593 34.8828 265.593 34.6406C265.593 33.5156 265.374 32.6328 264.937 31.9844C264.499 31.3398 263.831 31.0156 262.937 31.0156C261.437 31.0156 260.382 31.8711 259.78 33.5781C259.487 34.2344 259.304 35 259.234 35.875C259.148 36.375 259.109 36.8594 259.109 37.3281C259.109 38.3828 259.331 39.2305 259.78 39.875C260.226 40.5234 260.89 40.8438 261.765 40.8438Z" fill="white"/>
<path d="M291.103 46.4531C288.279 46.4531 286.049 45.6953 284.416 44.1719C282.791 42.6406 281.978 40.5859 281.978 38C281.978 37.375 282.002 36.8906 282.056 36.5469L283.119 28.0156C283.357 26.0703 283.986 24.3516 285.01 22.8594C286.041 21.3711 287.385 20.2188 289.041 19.4062C290.705 18.5859 292.549 18.1719 294.572 18.1719C297.416 18.1719 299.658 18.8906 301.306 20.3281C302.951 21.7656 303.775 23.7109 303.775 26.1562C303.775 26.418 303.748 26.8672 303.697 27.5C303.697 27.7422 303.463 27.8867 302.994 27.9375L297.978 28.2812H297.806C297.439 28.2812 297.26 28.2188 297.26 28.0938L297.306 27.8594C297.326 27.6953 297.338 27.4688 297.338 27.1875C297.338 26.125 297.025 25.293 296.4 24.6875C295.783 24.0859 294.951 23.7812 293.9 23.7812C292.744 23.7812 291.752 24.1562 290.931 24.9062C290.119 25.6562 289.635 26.6406 289.478 27.8594L288.369 36.8125C288.346 36.9492 288.338 37.1484 288.338 37.4062C288.338 38.4609 288.65 39.2969 289.275 39.9219C289.908 40.5391 290.752 40.8438 291.806 40.8438C292.994 40.8438 293.986 40.4805 294.791 39.75C295.592 39.0117 296.06 38.0312 296.197 36.8125C296.217 36.6875 296.295 36.5781 296.431 36.4844C296.564 36.3906 296.736 36.3594 296.947 36.3906L301.916 36.6562C302.361 36.7109 302.576 36.7773 302.556 36.8594V37.0625C302.314 38.9297 301.681 40.5742 300.65 42C299.627 43.418 298.295 44.5156 296.65 45.2969C295.002 46.0703 293.154 46.4531 291.103 46.4531Z" fill="white"/>
<path d="M318.27 26.4375C318.29 26.2188 318.368 26.0469 318.505 25.9219C318.638 25.7891 318.81 25.7188 319.02 25.7188H324.005C324.212 25.7188 324.372 25.7891 324.489 25.9219C324.603 26.0469 324.649 26.2188 324.63 26.4375L322.302 45.4219C322.216 45.9023 321.95 46.1406 321.505 46.1406H316.536C316.317 46.1406 316.153 46.0781 316.052 45.9531C315.946 45.8203 315.911 45.6406 315.942 45.4219L316.052 44.4375C316.052 44.3125 316.024 44.2422 315.974 44.2188C315.919 44.1875 315.841 44.2266 315.739 44.3281C314.528 45.7461 312.856 46.4531 310.724 46.4531C308.981 46.4531 307.599 45.9492 306.567 44.9375C305.544 43.9297 305.036 42.4844 305.036 40.6094C305.036 40.0273 305.06 39.5781 305.114 39.2656L306.692 26.4375C306.724 26.2188 306.802 26.0469 306.927 25.9219C307.06 25.7891 307.231 25.7188 307.442 25.7188H312.427C312.634 25.7188 312.794 25.7891 312.911 25.9219C313.036 26.0469 313.083 26.2188 313.052 26.4375L311.63 37.7656L311.599 38.2812C311.599 39.0742 311.794 39.6953 312.192 40.1406C312.587 40.5898 313.138 40.8125 313.849 40.8125C314.556 40.8125 315.169 40.5898 315.692 40.1406C316.224 39.6953 316.591 39.1016 316.802 38.3594L318.27 26.4375Z" fill="white"/>
<path d="M339.164 25.4062C340.977 25.4062 342.422 25.9453 343.508 27.0156C344.59 28.0781 345.133 29.5586 345.133 31.4531C345.133 31.6836 345.106 32.0898 345.055 32.6719L343.461 45.4219C343.438 45.6406 343.36 45.8203 343.227 45.9531C343.102 46.0781 342.93 46.1406 342.711 46.1406H337.742C337.531 46.1406 337.367 46.0781 337.242 45.9531C337.125 45.8203 337.078 45.6406 337.102 45.4219L338.524 34.0938L338.57 33.5781C338.57 32.8203 338.367 32.2031 337.961 31.7344C337.555 31.2578 336.992 31.0156 336.274 31.0156C335.512 31.0156 334.844 31.2969 334.274 31.8594C333.711 32.4219 333.375 33.168 333.274 34.0938L331.899 45.4219C331.813 45.9023 331.547 46.1406 331.102 46.1406H326.133C325.914 46.1406 325.75 46.0781 325.649 45.9531C325.543 45.8203 325.508 45.6406 325.539 45.4219L327.867 26.4375C327.887 26.2188 327.965 26.0469 328.102 25.9219C328.235 25.7891 328.406 25.7188 328.617 25.7188H333.586C333.805 25.7188 333.969 25.7891 334.086 25.9219C334.199 26.0469 334.246 26.2188 334.227 26.4375L334.07 27.5312C334.039 27.668 334.055 27.75 334.117 27.7812C334.188 27.8047 334.262 27.7617 334.336 27.6562C335.524 26.1562 337.133 25.4062 339.164 25.4062Z" fill="white"/>
<path d="M360.251 25.4062C362.064 25.4062 363.509 25.9453 364.595 27.0156C365.677 28.0781 366.22 29.5586 366.22 31.4531C366.22 31.6836 366.193 32.0898 366.142 32.6719L364.548 45.4219C364.525 45.6406 364.447 45.8203 364.314 45.9531C364.189 46.0781 364.017 46.1406 363.798 46.1406H358.829C358.618 46.1406 358.454 46.0781 358.329 45.9531C358.212 45.8203 358.165 45.6406 358.189 45.4219L359.611 34.0938L359.657 33.5781C359.657 32.8203 359.454 32.2031 359.048 31.7344C358.642 31.2578 358.079 31.0156 357.361 31.0156C356.599 31.0156 355.931 31.2969 355.361 31.8594C354.798 32.4219 354.462 33.168 354.361 34.0938L352.986 45.4219C352.9 45.9023 352.634 46.1406 352.189 46.1406H347.22C347.001 46.1406 346.837 46.0781 346.736 45.9531C346.63 45.8203 346.595 45.6406 346.626 45.4219L349.814 19.2031C349.845 18.9961 349.931 18.8242 350.079 18.6875C350.224 18.5547 350.4 18.4844 350.611 18.4844H355.595C356.04 18.4844 356.236 18.7266 356.173 19.2031L355.157 27.5312C355.126 27.668 355.142 27.75 355.204 27.7812C355.275 27.8047 355.349 27.7617 355.423 27.6562C356.611 26.1562 358.22 25.4062 360.251 25.4062Z" fill="white"/>
<path d="M381.887 26.4375C381.969 25.9609 382.235 25.7188 382.684 25.7188H387.653C387.871 25.7188 388.032 25.7891 388.137 25.9219C388.239 26.0469 388.278 26.2188 388.246 26.4375L385.918 45.4219C385.895 45.6406 385.817 45.8203 385.684 45.9531C385.547 46.0781 385.375 46.1406 385.168 46.1406H380.2C379.981 46.1406 379.813 46.0781 379.7 45.9531C379.582 45.8203 379.536 45.6406 379.559 45.4219L379.684 44.4844C379.704 44.3516 379.684 44.2734 379.621 44.25C379.559 44.2188 379.485 44.2578 379.403 44.3594C378.215 45.7578 376.672 46.4531 374.778 46.4531C373.121 46.4531 371.653 45.8906 370.371 44.7656C369.098 43.6328 368.317 42.168 368.028 40.375C367.891 39.5312 367.825 38.7812 367.825 38.125C367.825 37.5938 367.875 36.8281 367.981 35.8281C368.2 34.0391 368.672 32.3828 369.403 30.8594C370.192 29.2266 371.309 27.9023 372.746 26.8906C374.184 25.8711 375.719 25.3594 377.356 25.3594C379.325 25.3594 380.704 25.9688 381.496 27.1875C381.547 27.293 381.61 27.3359 381.684 27.3125C381.766 27.2812 381.809 27.1992 381.809 27.0625L381.887 26.4375ZM379.637 39.1875C380.188 38.293 380.543 37.2148 380.7 35.9531C380.75 35.3203 380.778 34.8828 380.778 34.6406C380.778 33.7773 380.661 33.0547 380.434 32.4688C380.004 31.5742 379.317 31.125 378.371 31.125C377.371 31.125 376.551 31.5898 375.918 32.5156C375.364 33.3281 374.985 34.4766 374.778 35.9531C374.723 36.4766 374.7 36.8438 374.7 37.0625C374.7 37.8984 374.817 38.6211 375.059 39.2344C375.422 40.2031 376.129 40.6875 377.184 40.6875C378.184 40.6875 379 40.1875 379.637 39.1875Z" fill="white"/>
<path d="M136.387 86.5996C134.156 86.5996 132.406 86.0996 131.137 85.0996C129.863 84.0918 129.23 82.7324 129.23 81.0215C129.23 80.8262 129.25 80.5332 129.293 80.1465L129.387 79.4746C129.426 79.1309 129.609 78.959 129.934 78.959H132.496C132.816 78.959 132.957 79.123 132.918 79.4434L132.855 79.959L132.824 80.3027C132.824 81.209 133.203 81.9551 133.965 82.5371C134.723 83.1113 135.762 83.3965 137.074 83.3965C138.418 83.3965 139.453 83.0762 140.184 82.4277C140.91 81.7832 141.277 80.9824 141.277 80.0215C141.277 79.2949 140.941 78.6934 140.277 78.2246C139.609 77.748 138.434 77.1543 136.746 76.4434C135.465 75.9355 134.41 75.4551 133.59 75.0059C132.777 74.5605 132.094 73.9707 131.543 73.2402C131 72.5137 130.73 71.6113 130.73 70.5371C130.73 69.123 131.078 67.8926 131.777 66.8496C132.473 65.7988 133.437 64.998 134.668 64.4434C135.906 63.8809 137.309 63.5996 138.871 63.5996C141.059 63.5996 142.797 64.127 144.09 65.1777C145.379 66.2207 146.027 67.623 146.027 69.3809C146.027 69.5488 146.004 69.8262 145.965 70.209L145.902 70.6309C145.859 70.9746 145.676 71.1465 145.355 71.1465H142.793C142.637 71.1465 142.516 71.1113 142.434 71.0371C142.348 70.9668 142.316 70.873 142.34 70.7559L142.402 70.4121L142.434 70.0215C142.434 69.1074 142.074 68.3418 141.355 67.7246C140.637 67.1113 139.625 66.8027 138.324 66.8027C137.074 66.8027 136.09 67.084 135.371 67.6465C134.66 68.2012 134.309 68.9902 134.309 70.0215C134.309 70.5527 134.465 71.0059 134.777 71.3809C135.098 71.7559 135.562 72.0957 136.168 72.3965C136.77 72.7012 137.691 73.0957 138.934 73.584C140.234 74.127 141.281 74.6113 142.074 75.0371C142.875 75.4668 143.551 76.0449 144.105 76.7715C144.656 77.502 144.934 78.4121 144.934 79.5059C144.934 79.6543 144.91 79.9199 144.871 80.3027C144.723 81.5527 144.281 82.6582 143.543 83.6152C142.801 84.5645 141.812 85.2988 140.574 85.8184C139.344 86.3418 137.949 86.5996 136.387 86.5996Z" fill="#41C1BA"/>
<path d="M154.196 86.5996C152.571 86.5996 151.215 86.1738 150.133 85.3184C149.047 84.4668 148.367 83.2793 148.086 81.7559C147.961 81.1934 147.899 80.5605 147.899 79.8496C147.899 79.4434 147.938 78.8574 148.024 78.084C148.199 76.7402 148.512 75.5215 148.961 74.4277C149.625 72.9277 150.602 71.7637 151.883 70.9277C153.172 70.084 154.653 69.6621 156.321 69.6621C157.903 69.6621 159.219 70.084 160.274 70.9277C161.324 71.7637 162 72.9199 162.305 74.3965C162.43 74.9902 162.492 75.6738 162.492 76.4434C162.492 76.9668 162.461 77.502 162.399 78.0527C162.219 79.3887 161.899 80.6113 161.43 81.7246C160.762 83.248 159.793 84.4395 158.524 85.3027C157.25 86.1699 155.809 86.5996 154.196 86.5996ZM154.586 83.3965C155.356 83.3965 156.043 83.1738 156.649 82.7246C157.262 82.2676 157.731 81.6309 158.055 80.8184C158.399 80.1113 158.621 79.209 158.727 78.1152C158.797 77.5449 158.836 77.0137 158.836 76.5215C158.836 76.2207 158.809 75.8574 158.758 75.4277C158.61 74.6074 158.282 73.9746 157.774 73.5371C157.274 73.0996 156.625 72.8809 155.836 72.8809C155.043 72.8809 154.34 73.0996 153.727 73.5371C153.121 73.9746 152.649 74.6074 152.305 75.4277C152 76.2402 151.789 77.1387 151.664 78.1152C151.602 78.6582 151.571 79.1855 151.571 79.6934C151.571 80.0176 151.59 80.3926 151.633 80.8184C151.778 81.6309 152.106 82.2676 152.617 82.7246C153.137 83.1738 153.793 83.3965 154.586 83.3965Z" fill="#41C1BA"/>
<path d="M174.991 69.8965C175.147 69.8965 175.261 69.9434 175.335 70.0371C175.405 70.1309 175.432 70.2559 175.413 70.4121L175.163 72.6934C175.1 73.0371 174.905 73.209 174.585 73.209H171.647C171.542 73.209 171.468 73.2715 171.429 73.3965L169.913 85.834C169.89 85.9824 169.835 86.1074 169.741 86.209C169.647 86.3028 169.511 86.3496 169.335 86.3496H166.741C166.397 86.3496 166.245 86.1778 166.288 85.834L167.835 73.3965C167.835 73.2715 167.776 73.209 167.663 73.209H165.866C165.718 73.209 165.604 73.1621 165.522 73.0684C165.448 72.9668 165.421 72.8418 165.444 72.6934L165.741 70.4121C165.78 70.0684 165.964 69.8965 166.288 69.8965H168.054C168.179 69.8965 168.249 69.8301 168.272 69.6934L168.35 69.1621C168.515 67.7676 168.823 66.6895 169.272 65.9278C169.718 65.1699 170.366 64.627 171.21 64.3028C172.061 63.9824 173.229 63.8301 174.71 63.8496H175.679C175.843 63.8496 175.96 63.9043 176.022 64.0059C176.085 64.0996 176.104 64.2207 176.085 64.3653L175.866 66.3653C175.843 66.5137 175.78 66.6309 175.679 66.7246C175.585 66.8184 175.452 66.8653 175.288 66.8653H174.616C173.71 66.8653 173.061 67.0488 172.679 67.4121C172.292 67.7793 172.046 68.4434 171.944 69.4121L171.882 69.6934C171.882 69.8301 171.944 69.8965 172.069 69.8965H174.991Z" fill="#41C1BA"/>
<path d="M186.693 72.4277C186.669 72.584 186.615 72.709 186.521 72.8027C186.427 72.8965 186.29 72.9434 186.115 72.9434H183.099C182.974 72.9434 182.912 73.0137 182.912 73.1465L181.974 80.7246C181.951 80.873 181.943 81.0762 181.943 81.334C181.943 81.9395 182.099 82.3809 182.412 82.6621C182.724 82.9355 183.197 83.0684 183.833 83.0684H184.646C184.81 83.0684 184.927 83.123 184.99 83.2246C185.06 83.3184 185.083 83.4395 185.052 83.584L184.802 85.7402C184.759 86.0645 184.576 86.248 184.255 86.2871L182.74 86.3184C181.259 86.3184 180.146 86.084 179.396 85.6152C178.646 85.1387 178.271 84.2676 178.271 83.0059C178.271 82.8613 178.294 82.5762 178.349 82.1465L179.427 73.1465C179.427 73.0137 179.373 72.9434 179.271 72.9434H177.63C177.482 72.9434 177.369 72.8965 177.287 72.8027C177.212 72.709 177.193 72.584 177.224 72.4277L177.474 70.4434C177.513 70.0996 177.697 69.9277 178.021 69.9277H179.63C179.755 69.9277 179.826 69.8652 179.849 69.7402L180.302 66.1309C180.322 65.9863 180.38 65.8652 180.474 65.7715C180.576 65.6699 180.701 65.6152 180.849 65.6152H183.318C183.494 65.6152 183.615 65.6699 183.677 65.7715C183.74 65.8652 183.759 65.9863 183.74 66.1309L183.318 69.7402C183.294 69.7832 183.302 69.8262 183.333 69.8652C183.365 69.9082 183.415 69.9277 183.49 69.9277H186.505C186.669 69.9277 186.787 69.9746 186.849 70.0684C186.919 70.1621 186.947 70.2871 186.927 70.4434L186.693 72.4277Z" fill="#41C1BA"/>
<path d="M192.064 86.3496C191.783 86.3496 191.611 86.209 191.548 85.9277L189.048 70.5059V70.4434C189.048 70.0996 189.22 69.9277 189.564 69.9277H192.298C192.587 69.9277 192.736 70.0801 192.736 70.3809L194.033 80.9121C194.033 81.0059 194.064 81.0527 194.126 81.0527C194.189 81.0527 194.228 81.0059 194.251 80.9121L198.205 70.3809C198.306 70.0801 198.509 69.9277 198.814 69.9277H201.22C201.521 69.9277 201.693 70.0801 201.736 70.3809L203.189 80.9434C203.189 81.0371 203.22 81.084 203.283 81.084C203.345 81.084 203.384 81.0371 203.408 80.9434L207.392 70.3809C207.431 70.2246 207.509 70.1113 207.626 70.0371C207.751 69.9668 207.876 69.9277 208.001 69.9277L210.705 69.959C210.88 69.959 211.001 70.0137 211.064 70.1152C211.126 70.2207 211.126 70.3613 211.064 70.5371L204.736 85.9277C204.599 86.209 204.396 86.3496 204.126 86.3496H201.361C201.08 86.3496 200.908 86.209 200.845 85.9277L199.361 76.3184C199.337 76.2363 199.298 76.1934 199.236 76.1934C199.173 76.1934 199.13 76.2363 199.111 76.3184L195.47 85.8965C195.345 86.2012 195.13 86.3496 194.83 86.3496H192.064Z" fill="#41C1BA"/>
<path d="M223.537 70.4434C223.556 70.2871 223.615 70.1621 223.709 70.0684C223.803 69.9746 223.935 69.9277 224.115 69.9277H226.724C227.056 69.9277 227.201 70.0996 227.162 70.4434L225.271 85.834C225.248 85.9824 225.185 86.1074 225.084 86.209C224.99 86.3027 224.857 86.3496 224.693 86.3496H222.084C221.74 86.3496 221.592 86.1777 221.646 85.834L221.74 85.0684C221.76 84.9746 221.74 84.9199 221.678 84.8965C221.623 84.877 221.576 84.9043 221.537 84.9746C220.514 86.0605 219.275 86.5996 217.818 86.5996C216.357 86.5996 215.162 86.2012 214.224 85.3965C213.295 84.5957 212.681 83.498 212.381 82.0996C212.256 81.4238 212.193 80.7207 212.193 79.9902C212.193 79.3027 212.232 78.6699 212.318 78.084C212.482 76.584 212.818 75.2793 213.318 74.1621C213.951 72.7559 214.834 71.6582 215.959 70.8652C217.084 70.0645 218.396 69.6621 219.896 69.6621C221.31 69.6621 222.428 70.1699 223.24 71.1777C223.291 71.2637 223.338 71.2949 223.381 71.2715C223.42 71.252 223.451 71.2012 223.474 71.1152L223.537 70.4434ZM221.381 81.8496C221.963 81.0176 222.357 79.7715 222.568 78.1152C222.631 77.5645 222.662 77.0645 222.662 76.6152C222.662 75.6465 222.525 74.877 222.256 74.3027C221.818 73.3574 221.099 72.8809 220.099 72.8809C219.025 72.8809 218.135 73.334 217.428 74.2402C216.697 75.2012 216.24 76.502 216.053 78.1465C215.978 78.6699 215.943 79.1426 215.943 79.5684C215.943 80.4434 216.072 81.1934 216.334 81.8184C216.76 82.8496 217.572 83.3652 218.771 83.3652C219.803 83.3652 220.67 82.8613 221.381 81.8496Z" fill="#41C1BA"/>
<path d="M238.546 69.7402C239.19 69.7402 239.725 69.8574 240.155 70.084C240.393 70.209 240.456 70.4238 240.343 70.7246L239.546 73.3965C239.483 73.5645 239.397 73.6738 239.296 73.7246C239.202 73.7676 239.069 73.7676 238.905 73.7246C238.663 73.6309 238.343 73.584 237.936 73.584C237.675 73.584 237.472 73.5957 237.327 73.6152C236.452 73.6699 235.686 73.9902 235.03 74.584C234.374 75.1699 233.983 75.9277 233.858 76.8652L232.764 85.834C232.741 85.9824 232.679 86.1074 232.577 86.209C232.483 86.3027 232.362 86.3496 232.218 86.3496H229.577C229.429 86.3496 229.315 86.3027 229.233 86.209C229.159 86.1074 229.132 85.9824 229.155 85.834L231.061 70.4434C231.1 70.0996 231.284 69.9277 231.608 69.9277H234.202C234.546 69.9277 234.694 70.0996 234.655 70.4434L234.499 71.6934C234.499 71.7793 234.514 71.8301 234.546 71.8496C234.577 71.873 234.624 71.8418 234.686 71.7559C235.694 70.4121 236.983 69.7402 238.546 69.7402Z" fill="#41C1BA"/>
<path d="M248.326 83.459C249.076 83.4395 249.755 83.2715 250.372 82.959C250.997 82.6465 251.513 82.2246 251.919 81.6934C252.021 81.5176 252.173 81.4277 252.372 81.4277C252.454 81.4277 252.537 81.459 252.622 81.5215L253.982 82.7559C254.107 82.8809 254.169 83.0059 254.169 83.1309C254.169 83.248 254.126 83.3574 254.044 83.459C253.314 84.4395 252.392 85.209 251.279 85.7715C250.162 86.3262 248.927 86.5996 247.576 86.5996C245.927 86.5996 244.599 86.2012 243.591 85.3965C242.591 84.5957 241.927 83.4746 241.607 82.0371C241.451 81.3809 241.372 80.6113 241.372 79.7246C241.372 79.1934 241.404 78.6387 241.466 78.0527C241.642 76.5957 241.892 75.459 242.216 74.6465C242.787 73.127 243.716 71.9199 244.997 71.0215C246.287 70.1152 247.763 69.6621 249.419 69.6621C251.513 69.6621 253.033 70.2871 253.982 71.5371C254.939 72.7793 255.419 74.5527 255.419 76.8652C255.419 77.5137 255.388 78.1895 255.326 78.8965C255.302 79.0449 255.24 79.1699 255.138 79.2715C255.044 79.3652 254.923 79.4121 254.779 79.4121H245.107C245.001 79.4121 244.927 79.4746 244.888 79.5996L244.841 80.2715C244.841 81.2637 245.146 82.0449 245.763 82.6152C246.376 83.1777 247.232 83.459 248.326 83.459ZM248.997 72.8809C248.204 72.8809 247.529 73.0801 246.966 73.4746C246.412 73.873 245.997 74.4238 245.716 75.1309C245.591 75.3926 245.451 75.8418 245.294 76.4746C245.271 76.6113 245.314 76.6777 245.419 76.6777H251.701C251.826 76.6777 251.896 76.6113 251.919 76.4746C251.919 75.9043 251.908 75.5176 251.888 75.3184C251.783 74.5684 251.474 73.9746 250.966 73.5371C250.466 73.0996 249.81 72.8809 248.997 72.8809Z" fill="#41C1BA"/>
<path d="M264.812 86.3496C264.469 86.3496 264.316 86.1777 264.359 85.834L267 64.3652C267.062 64.0215 267.254 63.8496 267.578 63.8496H275.062C277.094 63.8496 278.707 64.3574 279.906 65.3652C281.113 66.3652 281.719 67.7363 281.719 69.4746C281.719 69.6934 281.695 70.0176 281.656 70.4434L280.531 79.7559C280.269 81.7793 279.39 83.3809 277.89 84.5684C276.39 85.7559 274.523 86.3496 272.297 86.3496H264.812ZM268.344 82.9434C268.32 83.0684 268.375 83.1309 268.5 83.1309H272.844C273.937 83.1309 274.859 82.7715 275.609 82.0527C276.359 81.334 276.805 80.377 276.953 79.1777L277.984 71.0527C278.004 70.8965 278.015 70.6738 278.015 70.3809C278.015 69.3496 277.722 68.5449 277.14 67.959C276.566 67.3652 275.773 67.0684 274.765 67.0684H270.469C270.344 67.0684 270.281 67.1309 270.281 67.2559L268.344 82.9434Z" fill="#41C1BA"/>
<path d="M290.724 83.459C291.474 83.4395 292.153 83.2715 292.77 82.959C293.395 82.6465 293.911 82.2246 294.317 81.6934C294.419 81.5176 294.571 81.4277 294.77 81.4277C294.853 81.4277 294.935 81.459 295.02 81.5215L296.38 82.7559C296.505 82.8809 296.567 83.0059 296.567 83.1309C296.567 83.248 296.524 83.3574 296.442 83.459C295.712 84.4395 294.79 85.209 293.677 85.7715C292.56 86.3262 291.325 86.5996 289.974 86.5996C288.325 86.5996 286.997 86.2012 285.989 85.3965C284.989 84.5957 284.325 83.4746 284.005 82.0371C283.849 81.3809 283.77 80.6113 283.77 79.7246C283.77 79.1934 283.802 78.6387 283.864 78.0527C284.04 76.5957 284.29 75.459 284.614 74.6465C285.185 73.127 286.114 71.9199 287.395 71.0215C288.685 70.1152 290.161 69.6621 291.817 69.6621C293.911 69.6621 295.431 70.2871 296.38 71.5371C297.337 72.7793 297.817 74.5527 297.817 76.8652C297.817 77.5137 297.786 78.1895 297.724 78.8965C297.7 79.0449 297.638 79.1699 297.536 79.2715C297.442 79.3652 297.321 79.4121 297.177 79.4121H287.505C287.399 79.4121 287.325 79.4746 287.286 79.5996L287.239 80.2715C287.239 81.2637 287.544 82.0449 288.161 82.6152C288.774 83.1777 289.63 83.459 290.724 83.459ZM291.395 72.8809C290.603 72.8809 289.927 73.0801 289.364 73.4746C288.81 73.873 288.395 74.4238 288.114 75.1309C287.989 75.3926 287.849 75.8418 287.692 76.4746C287.669 76.6113 287.712 76.6777 287.817 76.6777H294.099C294.224 76.6777 294.294 76.6113 294.317 76.4746C294.317 75.9043 294.306 75.5176 294.286 75.3184C294.181 74.5684 293.872 73.9746 293.364 73.5371C292.864 73.0996 292.208 72.8809 291.395 72.8809Z" fill="#41C1BA"/>
<path d="M304.538 86.3496C304.233 86.3496 304.073 86.209 304.053 85.9277L301.007 70.5059V70.3809C301.007 70.0801 301.167 69.9277 301.491 69.9277H304.413C304.694 69.9277 304.866 70.0684 304.928 70.3496L306.6 81.0215C306.62 81.1074 306.655 81.1465 306.71 81.1465C306.76 81.1465 306.796 81.1074 306.819 81.0215L311.1 70.3809C311.225 70.0801 311.428 69.9277 311.71 69.9277L314.632 69.959C314.913 69.959 315.053 70.0645 315.053 70.2715L314.991 70.5371L308.21 85.9277C308.073 86.209 307.87 86.3496 307.6 86.3496H304.538Z" fill="#41C1BA"/>
<path d="M323.351 83.459C324.101 83.4395 324.78 83.2715 325.397 82.959C326.022 82.6465 326.538 82.2246 326.944 81.6934C327.046 81.5176 327.198 81.4277 327.397 81.4277C327.479 81.4277 327.562 81.459 327.647 81.5215L329.007 82.7559C329.132 82.8809 329.194 83.0059 329.194 83.1309C329.194 83.248 329.151 83.3574 329.069 83.459C328.339 84.4395 327.417 85.209 326.304 85.7715C325.187 86.3262 323.952 86.5996 322.601 86.5996C320.952 86.5996 319.624 86.2012 318.616 85.3965C317.616 84.5957 316.952 83.4746 316.632 82.0371C316.476 81.3809 316.397 80.6113 316.397 79.7246C316.397 79.1934 316.429 78.6387 316.491 78.0527C316.667 76.5957 316.917 75.459 317.241 74.6465C317.812 73.127 318.741 71.9199 320.022 71.0215C321.312 70.1152 322.788 69.6621 324.444 69.6621C326.538 69.6621 328.058 70.2871 329.007 71.5371C329.964 72.7793 330.444 74.5527 330.444 76.8652C330.444 77.5137 330.413 78.1895 330.351 78.8965C330.327 79.0449 330.265 79.1699 330.163 79.2715C330.069 79.3652 329.948 79.4121 329.804 79.4121H320.132C320.026 79.4121 319.952 79.4746 319.913 79.5996L319.866 80.2715C319.866 81.2637 320.171 82.0449 320.788 82.6152C321.401 83.1777 322.257 83.459 323.351 83.459ZM324.022 72.8809C323.229 72.8809 322.554 73.0801 321.991 73.4746C321.437 73.873 321.022 74.4238 320.741 75.1309C320.616 75.3926 320.476 75.8418 320.319 76.4746C320.296 76.6113 320.339 76.6777 320.444 76.6777H326.726C326.851 76.6777 326.921 76.6113 326.944 76.4746C326.944 75.9043 326.933 75.5176 326.913 75.3184C326.808 74.5684 326.499 73.9746 325.991 73.5371C325.491 73.0996 324.835 72.8809 324.022 72.8809Z" fill="#41C1BA"/>
<path d="M333.274 86.3496C333.126 86.3496 333.013 86.3027 332.93 86.209C332.856 86.1074 332.837 85.9824 332.868 85.834L335.493 64.3652C335.532 64.0215 335.716 63.8496 336.04 63.8496H338.68C338.825 63.8496 338.934 63.9043 339.009 64.0059C339.091 64.0996 339.122 64.2207 339.102 64.3652L336.462 85.834C336.438 85.9824 336.376 86.1074 336.274 86.209C336.18 86.3027 336.059 86.3496 335.915 86.3496H333.274Z" fill="#41C1BA"/>
<path d="M347.095 86.5996C345.47 86.5996 344.114 86.1738 343.032 85.3184C341.946 84.4668 341.266 83.2793 340.985 81.7559C340.86 81.1934 340.798 80.5605 340.798 79.8496C340.798 79.4434 340.837 78.8574 340.923 78.084C341.099 76.7402 341.411 75.5215 341.86 74.4277C342.524 72.9277 343.501 71.7637 344.782 70.9277C346.071 70.084 347.552 69.6621 349.22 69.6621C350.802 69.6621 352.118 70.084 353.173 70.9277C354.224 71.7637 354.899 72.9199 355.204 74.3965C355.329 74.9902 355.391 75.6738 355.391 76.4434C355.391 76.9668 355.36 77.502 355.298 78.0527C355.118 79.3887 354.798 80.6113 354.329 81.7246C353.661 83.248 352.692 84.4395 351.423 85.3027C350.149 86.1699 348.708 86.5996 347.095 86.5996ZM347.485 83.3965C348.255 83.3965 348.942 83.1738 349.548 82.7246C350.161 82.2676 350.63 81.6309 350.954 80.8184C351.298 80.1113 351.52 79.209 351.626 78.1152C351.696 77.5449 351.735 77.0137 351.735 76.5215C351.735 76.2207 351.708 75.8574 351.657 75.4277C351.509 74.6074 351.181 73.9746 350.673 73.5371C350.173 73.0996 349.524 72.8809 348.735 72.8809C347.942 72.8809 347.239 73.0996 346.626 73.5371C346.02 73.9746 345.548 74.6074 345.204 75.4277C344.899 76.2402 344.688 77.1387 344.563 78.1152C344.501 78.6582 344.47 79.1855 344.47 79.6934C344.47 80.0176 344.489 80.3926 344.532 80.8184C344.677 81.6309 345.005 82.2676 345.516 82.7246C346.036 83.1738 346.692 83.3965 347.485 83.3965Z" fill="#41C1BA"/>
<path d="M372.718 74.1621C372.843 74.8301 372.906 75.5371 372.906 76.2871C372.906 76.9746 372.863 77.6113 372.781 78.1934C372.613 79.6934 372.281 80.998 371.781 82.0996C371.144 83.5176 370.269 84.623 369.156 85.4121C368.039 86.2051 366.722 86.5996 365.203 86.5996C363.742 86.5996 362.628 86.0801 361.859 85.0371C361.816 84.9668 361.769 84.9395 361.718 84.959C361.675 84.9707 361.644 85.0176 361.624 85.0996L360.796 91.9121C360.773 92.0566 360.71 92.1777 360.609 92.2715C360.515 92.373 360.382 92.4277 360.218 92.4277H357.609C357.265 92.4277 357.113 92.2559 357.156 91.9121L359.796 70.4434C359.859 70.0996 360.05 69.9277 360.374 69.9277H362.984C363.328 69.9277 363.472 70.0996 363.421 70.4434L363.328 71.2715C363.304 71.3574 363.32 71.4121 363.374 71.4434C363.437 71.4668 363.488 71.4277 363.531 71.334C364.531 70.2207 365.781 69.6621 367.281 69.6621C368.738 69.6621 369.937 70.0684 370.874 70.8809C371.82 71.6855 372.437 72.7793 372.718 74.1621ZM367.671 82.0371C368.398 81.0801 368.859 79.7715 369.046 78.1152C369.117 77.6074 369.156 77.1387 369.156 76.709C369.156 75.8145 369.023 75.0645 368.765 74.459C368.335 73.4277 367.523 72.9121 366.328 72.9121C365.296 72.9121 364.425 73.4199 363.718 74.4277C363.132 75.2637 362.738 76.502 362.531 78.1465C362.468 78.6895 362.437 79.1934 362.437 79.6621C362.437 80.6309 362.57 81.4043 362.843 81.9746C363.281 82.9238 363.999 83.3965 364.999 83.3965C366.07 83.3965 366.96 82.9434 367.671 82.0371Z" fill="#41C1BA"/>
<path d="M382.497 83.459C383.247 83.4395 383.926 83.2715 384.543 82.959C385.168 82.6465 385.684 82.2246 386.09 81.6934C386.192 81.5176 386.344 81.4277 386.543 81.4277C386.625 81.4277 386.708 81.459 386.793 81.5215L388.153 82.7559C388.278 82.8809 388.34 83.0059 388.34 83.1309C388.34 83.248 388.297 83.3574 388.215 83.459C387.485 84.4395 386.563 85.209 385.45 85.7715C384.333 86.3262 383.098 86.5996 381.747 86.5996C380.098 86.5996 378.77 86.2012 377.762 85.3965C376.762 84.5957 376.098 83.4746 375.778 82.0371C375.622 81.3809 375.543 80.6113 375.543 79.7246C375.543 79.1934 375.575 78.6387 375.637 78.0527C375.813 76.5957 376.063 75.459 376.387 74.6465C376.958 73.127 377.887 71.9199 379.168 71.0215C380.458 70.1152 381.934 69.6621 383.59 69.6621C385.684 69.6621 387.204 70.2871 388.153 71.5371C389.11 72.7793 389.59 74.5527 389.59 76.8652C389.59 77.5137 389.559 78.1895 389.497 78.8965C389.473 79.0449 389.411 79.1699 389.309 79.2715C389.215 79.3652 389.094 79.4121 388.95 79.4121H379.278C379.172 79.4121 379.098 79.4746 379.059 79.5996L379.012 80.2715C379.012 81.2637 379.317 82.0449 379.934 82.6152C380.547 83.1777 381.403 83.459 382.497 83.459ZM383.168 72.8809C382.375 72.8809 381.7 73.0801 381.137 73.4746C380.583 73.873 380.168 74.4238 379.887 75.1309C379.762 75.3926 379.622 75.8418 379.465 76.4746C379.442 76.6113 379.485 76.6777 379.59 76.6777H385.872C385.997 76.6777 386.067 76.6113 386.09 76.4746C386.09 75.9043 386.079 75.5176 386.059 75.3184C385.954 74.5684 385.645 73.9746 385.137 73.5371C384.637 73.0996 383.981 72.8809 383.168 72.8809Z" fill="#41C1BA"/>
<path d="M401.358 69.7402C402.002 69.7402 402.537 69.8574 402.967 70.084C403.205 70.209 403.268 70.4238 403.155 70.7246L402.358 73.3965C402.295 73.5645 402.209 73.6738 402.108 73.7246C402.014 73.7676 401.881 73.7676 401.717 73.7246C401.475 73.6309 401.155 73.584 400.748 73.584C400.487 73.584 400.284 73.5957 400.139 73.6152C399.264 73.6699 398.498 73.9902 397.842 74.584C397.186 75.1699 396.795 75.9277 396.67 76.8652L395.577 85.834C395.553 85.9824 395.491 86.1074 395.389 86.209C395.295 86.3027 395.174 86.3496 395.03 86.3496H392.389C392.241 86.3496 392.127 86.3027 392.045 86.209C391.971 86.1074 391.944 85.9824 391.967 85.834L393.873 70.4434C393.912 70.0996 394.096 69.9277 394.42 69.9277H397.014C397.358 69.9277 397.506 70.0996 397.467 70.4434L397.311 71.6934C397.311 71.7793 397.327 71.8301 397.358 71.8496C397.389 71.873 397.436 71.8418 397.498 71.7559C398.506 70.4121 399.795 69.7402 401.358 69.7402Z" fill="#41C1BA"/>
</g>
<defs>
<clipPath id="clip0_201_268">
<rect width="403.209" height="109.5" fill="white"/>
</clipPath>
</defs>
</svg>
